<mxfile host="Electron" modified="2024-09-12T12:19:55.409Z" agent="Mozilla/5.0 (X11; Linux x86_64) AppleWebKit/537.36 (KHTML, like Gecko) draw.io/24.4.0 Chrome/126.0.6478.234 Electron/31.4.0 Safari/537.36" etag="0Wl7UQgeR09lwSH4vEzj" version="24.3.1" type="device">
  <diagram name="Page-1" id="UD03vMwt7I1gZaVWRE_m">
    <mxGraphModel dx="1410" dy="855" grid="1" gridSize="10" guides="1" tooltips="1" connect="1" arrows="1" fold="1" page="1" pageScale="1" pageWidth="850" pageHeight="1100" math="0" shadow="0">
      <root>
        <mxCell id="0" />
        <mxCell id="1" parent="0" />
        <mxCell id="UymZj9wGqCluFkGQLvST-3" value="&lt;font style=&quot;font-size: 24px;&quot;&gt;Row 0&lt;/font&gt;" style="rounded=0;whiteSpace=wrap;html=1;" vertex="1" parent="1">
          <mxGeometry x="200" y="360" width="80" height="40" as="geometry" />
        </mxCell>
        <mxCell id="UymZj9wGqCluFkGQLvST-17" style="edgeStyle=orthogonalEdgeStyle;rounded=0;orthogonalLoop=1;jettySize=auto;html=1;entryX=0;entryY=0.5;entryDx=0;entryDy=0;" edge="1" parent="1" source="UymZj9wGqCluFkGQLvST-6" target="UymZj9wGqCluFkGQLvST-3">
          <mxGeometry relative="1" as="geometry">
            <Array as="points">
              <mxPoint x="140" y="380" />
            </Array>
          </mxGeometry>
        </mxCell>
        <mxCell id="UymZj9wGqCluFkGQLvST-53" style="edgeStyle=orthogonalEdgeStyle;rounded=0;orthogonalLoop=1;jettySize=auto;html=1;entryX=0;entryY=0.5;entryDx=0;entryDy=0;" edge="1" parent="1" source="UymZj9wGqCluFkGQLvST-6" target="UymZj9wGqCluFkGQLvST-11">
          <mxGeometry relative="1" as="geometry">
            <Array as="points">
              <mxPoint x="140" y="440" />
            </Array>
          </mxGeometry>
        </mxCell>
        <mxCell id="UymZj9wGqCluFkGQLvST-54" style="edgeStyle=orthogonalEdgeStyle;rounded=0;orthogonalLoop=1;jettySize=auto;html=1;entryX=0;entryY=0.5;entryDx=0;entryDy=0;" edge="1" parent="1" source="UymZj9wGqCluFkGQLvST-6" target="UymZj9wGqCluFkGQLvST-14">
          <mxGeometry relative="1" as="geometry">
            <Array as="points">
              <mxPoint x="140" y="500" />
            </Array>
          </mxGeometry>
        </mxCell>
        <mxCell id="UymZj9wGqCluFkGQLvST-55" style="edgeStyle=orthogonalEdgeStyle;rounded=0;orthogonalLoop=1;jettySize=auto;html=1;entryX=0;entryY=0.5;entryDx=0;entryDy=0;" edge="1" parent="1" source="UymZj9wGqCluFkGQLvST-6" target="UymZj9wGqCluFkGQLvST-15">
          <mxGeometry relative="1" as="geometry">
            <Array as="points">
              <mxPoint x="140" y="560" />
            </Array>
          </mxGeometry>
        </mxCell>
        <mxCell id="UymZj9wGqCluFkGQLvST-56" style="edgeStyle=orthogonalEdgeStyle;rounded=0;orthogonalLoop=1;jettySize=auto;html=1;entryX=0;entryY=0.5;entryDx=0;entryDy=0;" edge="1" parent="1" source="UymZj9wGqCluFkGQLvST-6" target="UymZj9wGqCluFkGQLvST-16">
          <mxGeometry relative="1" as="geometry">
            <Array as="points">
              <mxPoint x="140" y="620" />
            </Array>
          </mxGeometry>
        </mxCell>
        <mxCell id="UymZj9wGqCluFkGQLvST-6" value="&lt;font style=&quot;font-size: 24px;&quot;&gt;â†º&lt;/font&gt;" style="rounded=0;whiteSpace=wrap;html=1;" vertex="1" parent="1">
          <mxGeometry x="120" y="280" width="40" height="40" as="geometry" />
        </mxCell>
        <mxCell id="UymZj9wGqCluFkGQLvST-11" value="&lt;font style=&quot;font-size: 24px;&quot;&gt;Row 1&lt;/font&gt;" style="rounded=0;whiteSpace=wrap;html=1;" vertex="1" parent="1">
          <mxGeometry x="200" y="420" width="80" height="40" as="geometry" />
        </mxCell>
        <mxCell id="UymZj9wGqCluFkGQLvST-14" value="&lt;font style=&quot;font-size: 24px;&quot;&gt;Row 2&lt;/font&gt;" style="rounded=0;whiteSpace=wrap;html=1;" vertex="1" parent="1">
          <mxGeometry x="200" y="480" width="80" height="40" as="geometry" />
        </mxCell>
        <mxCell id="UymZj9wGqCluFkGQLvST-15" value="&lt;font style=&quot;font-size: 24px;&quot;&gt;Row 3&lt;/font&gt;" style="rounded=0;whiteSpace=wrap;html=1;" vertex="1" parent="1">
          <mxGeometry x="200" y="540" width="80" height="40" as="geometry" />
        </mxCell>
        <mxCell id="UymZj9wGqCluFkGQLvST-16" value="&lt;font style=&quot;font-size: 24px;&quot;&gt;Row 4&lt;/font&gt;" style="rounded=0;whiteSpace=wrap;html=1;" vertex="1" parent="1">
          <mxGeometry x="200" y="600" width="80" height="40" as="geometry" />
        </mxCell>
        <mxCell id="UymZj9wGqCluFkGQLvST-38" value="&lt;span style=&quot;font-size: 24px;&quot;&gt;1&lt;/span&gt;" style="rounded=0;whiteSpace=wrap;html=1;fillColor=#dae8fc;strokeColor=#6c8ebf;" vertex="1" parent="1">
          <mxGeometry x="1040" y="360" width="40" height="40" as="geometry" />
        </mxCell>
        <mxCell id="UymZj9wGqCluFkGQLvST-169" style="edgeStyle=orthogonalEdgeStyle;rounded=0;orthogonalLoop=1;jettySize=auto;html=1;exitX=0.5;exitY=0;exitDx=0;exitDy=0;entryX=0.5;entryY=0;entryDx=0;entryDy=0;startArrow=classic;startFill=1;" edge="1" parent="1" source="UymZj9wGqCluFkGQLvST-39" target="UymZj9wGqCluFkGQLvST-38">
          <mxGeometry relative="1" as="geometry">
            <mxPoint x="1010" y="320" as="targetPoint" />
            <Array as="points">
              <mxPoint x="300" y="300" />
              <mxPoint x="1060" y="300" />
            </Array>
          </mxGeometry>
        </mxCell>
        <mxCell id="UymZj9wGqCluFkGQLvST-39" value="&lt;span style=&quot;font-size: 24px;&quot;&gt;1&lt;/span&gt;" style="rounded=0;whiteSpace=wrap;html=1;fillColor=#d5e8d4;strokeColor=#82b366;" vertex="1" parent="1">
          <mxGeometry x="280" y="360" width="40" height="40" as="geometry" />
        </mxCell>
        <mxCell id="UymZj9wGqCluFkGQLvST-40" value="&lt;span style=&quot;font-size: 24px;&quot;&gt;1&lt;/span&gt;" style="rounded=0;whiteSpace=wrap;html=1;fillColor=#d5e8d4;strokeColor=#82b366;" vertex="1" parent="1">
          <mxGeometry x="320" y="360" width="40" height="40" as="geometry" />
        </mxCell>
        <mxCell id="UymZj9wGqCluFkGQLvST-41" value="&lt;span style=&quot;font-size: 24px;&quot;&gt;1&lt;/span&gt;" style="rounded=0;whiteSpace=wrap;html=1;fillColor=#dae8fc;strokeColor=#6c8ebf;" vertex="1" parent="1">
          <mxGeometry x="1040" y="480" width="40" height="40" as="geometry" />
        </mxCell>
        <mxCell id="UymZj9wGqCluFkGQLvST-42" value="&lt;span style=&quot;font-size: 24px;&quot;&gt;1&lt;/span&gt;" style="rounded=0;whiteSpace=wrap;html=1;fillColor=#d5e8d4;strokeColor=#82b366;" vertex="1" parent="1">
          <mxGeometry x="280" y="480" width="40" height="40" as="geometry" />
        </mxCell>
        <mxCell id="UymZj9wGqCluFkGQLvST-43" value="&lt;span style=&quot;font-size: 24px;&quot;&gt;1&lt;/span&gt;" style="rounded=0;whiteSpace=wrap;html=1;fillColor=#d5e8d4;strokeColor=#82b366;" vertex="1" parent="1">
          <mxGeometry x="320" y="480" width="40" height="40" as="geometry" />
        </mxCell>
        <mxCell id="UymZj9wGqCluFkGQLvST-44" value="&lt;span style=&quot;font-size: 24px;&quot;&gt;1&lt;/span&gt;" style="rounded=0;whiteSpace=wrap;html=1;fillColor=#dae8fc;strokeColor=#6c8ebf;" vertex="1" parent="1">
          <mxGeometry x="1040" y="420" width="40" height="40" as="geometry" />
        </mxCell>
        <mxCell id="UymZj9wGqCluFkGQLvST-45" value="&lt;span style=&quot;font-size: 24px;&quot;&gt;0&lt;/span&gt;" style="rounded=0;whiteSpace=wrap;html=1;fillColor=#d5e8d4;strokeColor=#82b366;" vertex="1" parent="1">
          <mxGeometry x="280" y="420" width="40" height="40" as="geometry" />
        </mxCell>
        <mxCell id="UymZj9wGqCluFkGQLvST-46" value="&lt;span style=&quot;font-size: 24px;&quot;&gt;1&lt;/span&gt;" style="rounded=0;whiteSpace=wrap;html=1;fillColor=#d5e8d4;strokeColor=#82b366;" vertex="1" parent="1">
          <mxGeometry x="320" y="420" width="40" height="40" as="geometry" />
        </mxCell>
        <mxCell id="UymZj9wGqCluFkGQLvST-47" value="&lt;span style=&quot;font-size: 24px;&quot;&gt;1&lt;/span&gt;" style="rounded=0;whiteSpace=wrap;html=1;fillColor=#dae8fc;strokeColor=#6c8ebf;" vertex="1" parent="1">
          <mxGeometry x="1040" y="540" width="40" height="40" as="geometry" />
        </mxCell>
        <mxCell id="UymZj9wGqCluFkGQLvST-48" value="&lt;span style=&quot;font-size: 24px;&quot;&gt;0&lt;/span&gt;" style="rounded=0;whiteSpace=wrap;html=1;fillColor=#d5e8d4;strokeColor=#82b366;" vertex="1" parent="1">
          <mxGeometry x="280" y="540" width="40" height="40" as="geometry" />
        </mxCell>
        <mxCell id="UymZj9wGqCluFkGQLvST-49" value="&lt;span style=&quot;font-size: 24px;&quot;&gt;1&lt;/span&gt;" style="rounded=0;whiteSpace=wrap;html=1;fillColor=#d5e8d4;strokeColor=#82b366;" vertex="1" parent="1">
          <mxGeometry x="320" y="540" width="40" height="40" as="geometry" />
        </mxCell>
        <mxCell id="UymZj9wGqCluFkGQLvST-50" value="&lt;span style=&quot;font-size: 24px;&quot;&gt;1&lt;/span&gt;" style="rounded=0;whiteSpace=wrap;html=1;fillColor=#dae8fc;strokeColor=#6c8ebf;" vertex="1" parent="1">
          <mxGeometry x="1040" y="600" width="40" height="40" as="geometry" />
        </mxCell>
        <mxCell id="UymZj9wGqCluFkGQLvST-51" value="&lt;span style=&quot;font-size: 24px;&quot;&gt;0&lt;/span&gt;" style="rounded=0;whiteSpace=wrap;html=1;fillColor=#d5e8d4;strokeColor=#82b366;" vertex="1" parent="1">
          <mxGeometry x="280" y="600" width="40" height="40" as="geometry" />
        </mxCell>
        <mxCell id="UymZj9wGqCluFkGQLvST-52" value="&lt;span style=&quot;font-size: 24px;&quot;&gt;1&lt;/span&gt;" style="rounded=0;whiteSpace=wrap;html=1;fillColor=#d5e8d4;strokeColor=#82b366;" vertex="1" parent="1">
          <mxGeometry x="320" y="600" width="40" height="40" as="geometry" />
        </mxCell>
        <mxCell id="UymZj9wGqCluFkGQLvST-57" value="&lt;span style=&quot;font-size: 24px;&quot;&gt;0&lt;/span&gt;" style="rounded=0;whiteSpace=wrap;html=1;fillColor=#d5e8d4;strokeColor=#82b366;" vertex="1" parent="1">
          <mxGeometry x="360" y="360" width="40" height="40" as="geometry" />
        </mxCell>
        <mxCell id="UymZj9wGqCluFkGQLvST-58" value="&lt;span style=&quot;font-size: 24px;&quot;&gt;0&lt;/span&gt;" style="rounded=0;whiteSpace=wrap;html=1;fillColor=#d5e8d4;strokeColor=#82b366;" vertex="1" parent="1">
          <mxGeometry x="360" y="480" width="40" height="40" as="geometry" />
        </mxCell>
        <mxCell id="UymZj9wGqCluFkGQLvST-59" value="&lt;span style=&quot;font-size: 24px;&quot;&gt;0&lt;/span&gt;" style="rounded=0;whiteSpace=wrap;html=1;fillColor=#d5e8d4;strokeColor=#82b366;" vertex="1" parent="1">
          <mxGeometry x="360" y="420" width="40" height="40" as="geometry" />
        </mxCell>
        <mxCell id="UymZj9wGqCluFkGQLvST-60" value="&lt;span style=&quot;font-size: 24px;&quot;&gt;0&lt;/span&gt;" style="rounded=0;whiteSpace=wrap;html=1;fillColor=#d5e8d4;strokeColor=#82b366;" vertex="1" parent="1">
          <mxGeometry x="360" y="540" width="40" height="40" as="geometry" />
        </mxCell>
        <mxCell id="UymZj9wGqCluFkGQLvST-61" value="&lt;span style=&quot;font-size: 24px;&quot;&gt;0&lt;/span&gt;" style="rounded=0;whiteSpace=wrap;html=1;fillColor=#d5e8d4;strokeColor=#82b366;" vertex="1" parent="1">
          <mxGeometry x="360" y="600" width="40" height="40" as="geometry" />
        </mxCell>
        <mxCell id="UymZj9wGqCluFkGQLvST-62" value="&lt;span style=&quot;font-size: 24px;&quot;&gt;1&lt;/span&gt;" style="rounded=0;whiteSpace=wrap;html=1;fillColor=#d5e8d4;strokeColor=#82b366;" vertex="1" parent="1">
          <mxGeometry x="400" y="360" width="40" height="40" as="geometry" />
        </mxCell>
        <mxCell id="UymZj9wGqCluFkGQLvST-63" value="&lt;span style=&quot;font-size: 24px;&quot;&gt;1&lt;/span&gt;" style="rounded=0;whiteSpace=wrap;html=1;fillColor=#d5e8d4;strokeColor=#82b366;" vertex="1" parent="1">
          <mxGeometry x="440" y="360" width="40" height="40" as="geometry" />
        </mxCell>
        <mxCell id="UymZj9wGqCluFkGQLvST-64" value="&lt;span style=&quot;font-size: 24px;&quot;&gt;0&lt;/span&gt;" style="rounded=0;whiteSpace=wrap;html=1;fillColor=#d5e8d4;strokeColor=#82b366;" vertex="1" parent="1">
          <mxGeometry x="480" y="360" width="40" height="40" as="geometry" />
        </mxCell>
        <mxCell id="UymZj9wGqCluFkGQLvST-65" value="&lt;span style=&quot;font-size: 24px;&quot;&gt;1&lt;/span&gt;" style="rounded=0;whiteSpace=wrap;html=1;fillColor=#d5e8d4;strokeColor=#82b366;" vertex="1" parent="1">
          <mxGeometry x="400" y="480" width="40" height="40" as="geometry" />
        </mxCell>
        <mxCell id="UymZj9wGqCluFkGQLvST-66" value="&lt;span style=&quot;font-size: 24px;&quot;&gt;1&lt;/span&gt;" style="rounded=0;whiteSpace=wrap;html=1;fillColor=#d5e8d4;strokeColor=#82b366;" vertex="1" parent="1">
          <mxGeometry x="440" y="480" width="40" height="40" as="geometry" />
        </mxCell>
        <mxCell id="UymZj9wGqCluFkGQLvST-67" value="&lt;span style=&quot;font-size: 24px;&quot;&gt;0&lt;/span&gt;" style="rounded=0;whiteSpace=wrap;html=1;fillColor=#d5e8d4;strokeColor=#82b366;" vertex="1" parent="1">
          <mxGeometry x="480" y="480" width="40" height="40" as="geometry" />
        </mxCell>
        <mxCell id="UymZj9wGqCluFkGQLvST-68" value="&lt;span style=&quot;font-size: 24px;&quot;&gt;1&lt;/span&gt;" style="rounded=0;whiteSpace=wrap;html=1;fillColor=#d5e8d4;strokeColor=#82b366;" vertex="1" parent="1">
          <mxGeometry x="400" y="420" width="40" height="40" as="geometry" />
        </mxCell>
        <mxCell id="UymZj9wGqCluFkGQLvST-69" value="&lt;span style=&quot;font-size: 24px;&quot;&gt;0&lt;/span&gt;" style="rounded=0;whiteSpace=wrap;html=1;fillColor=#d5e8d4;strokeColor=#82b366;" vertex="1" parent="1">
          <mxGeometry x="440" y="420" width="40" height="40" as="geometry" />
        </mxCell>
        <mxCell id="UymZj9wGqCluFkGQLvST-70" value="&lt;span style=&quot;font-size: 24px;&quot;&gt;1&lt;/span&gt;" style="rounded=0;whiteSpace=wrap;html=1;fillColor=#d5e8d4;strokeColor=#82b366;" vertex="1" parent="1">
          <mxGeometry x="480" y="420" width="40" height="40" as="geometry" />
        </mxCell>
        <mxCell id="UymZj9wGqCluFkGQLvST-71" value="&lt;span style=&quot;font-size: 24px;&quot;&gt;1&lt;/span&gt;" style="rounded=0;whiteSpace=wrap;html=1;fillColor=#d5e8d4;strokeColor=#82b366;" vertex="1" parent="1">
          <mxGeometry x="400" y="540" width="40" height="40" as="geometry" />
        </mxCell>
        <mxCell id="UymZj9wGqCluFkGQLvST-72" value="&lt;span style=&quot;font-size: 24px;&quot;&gt;0&lt;/span&gt;" style="rounded=0;whiteSpace=wrap;html=1;fillColor=#d5e8d4;strokeColor=#82b366;" vertex="1" parent="1">
          <mxGeometry x="440" y="540" width="40" height="40" as="geometry" />
        </mxCell>
        <mxCell id="UymZj9wGqCluFkGQLvST-73" value="&lt;span style=&quot;font-size: 24px;&quot;&gt;1&lt;/span&gt;" style="rounded=0;whiteSpace=wrap;html=1;fillColor=#d5e8d4;strokeColor=#82b366;" vertex="1" parent="1">
          <mxGeometry x="480" y="540" width="40" height="40" as="geometry" />
        </mxCell>
        <mxCell id="UymZj9wGqCluFkGQLvST-74" value="&lt;span style=&quot;font-size: 24px;&quot;&gt;1&lt;/span&gt;" style="rounded=0;whiteSpace=wrap;html=1;fillColor=#d5e8d4;strokeColor=#82b366;" vertex="1" parent="1">
          <mxGeometry x="400" y="600" width="40" height="40" as="geometry" />
        </mxCell>
        <mxCell id="UymZj9wGqCluFkGQLvST-75" value="&lt;span style=&quot;font-size: 24px;&quot;&gt;1&lt;/span&gt;" style="rounded=0;whiteSpace=wrap;html=1;fillColor=#d5e8d4;strokeColor=#82b366;" vertex="1" parent="1">
          <mxGeometry x="440" y="600" width="40" height="40" as="geometry" />
        </mxCell>
        <mxCell id="UymZj9wGqCluFkGQLvST-76" value="&lt;span style=&quot;font-size: 24px;&quot;&gt;0&lt;/span&gt;" style="rounded=0;whiteSpace=wrap;html=1;fillColor=#d5e8d4;strokeColor=#82b366;" vertex="1" parent="1">
          <mxGeometry x="480" y="600" width="40" height="40" as="geometry" />
        </mxCell>
        <mxCell id="UymZj9wGqCluFkGQLvST-82" value="&lt;span style=&quot;font-size: 24px;&quot;&gt;0&lt;/span&gt;" style="rounded=0;whiteSpace=wrap;html=1;fillColor=#d5e8d4;strokeColor=#82b366;" vertex="1" parent="1">
          <mxGeometry x="520" y="360" width="40" height="40" as="geometry" />
        </mxCell>
        <mxCell id="UymZj9wGqCluFkGQLvST-83" value="&lt;span style=&quot;font-size: 24px;&quot;&gt;0&lt;/span&gt;" style="rounded=0;whiteSpace=wrap;html=1;fillColor=#d5e8d4;strokeColor=#82b366;" vertex="1" parent="1">
          <mxGeometry x="520" y="480" width="40" height="40" as="geometry" />
        </mxCell>
        <mxCell id="UymZj9wGqCluFkGQLvST-84" value="&lt;span style=&quot;font-size: 24px;&quot;&gt;0&lt;/span&gt;" style="rounded=0;whiteSpace=wrap;html=1;fillColor=#d5e8d4;strokeColor=#82b366;" vertex="1" parent="1">
          <mxGeometry x="520" y="420" width="40" height="40" as="geometry" />
        </mxCell>
        <mxCell id="UymZj9wGqCluFkGQLvST-85" value="&lt;span style=&quot;font-size: 24px;&quot;&gt;0&lt;/span&gt;" style="rounded=0;whiteSpace=wrap;html=1;fillColor=#d5e8d4;strokeColor=#82b366;" vertex="1" parent="1">
          <mxGeometry x="520" y="540" width="40" height="40" as="geometry" />
        </mxCell>
        <mxCell id="UymZj9wGqCluFkGQLvST-86" value="&lt;span style=&quot;font-size: 24px;&quot;&gt;0&lt;/span&gt;" style="rounded=0;whiteSpace=wrap;html=1;fillColor=#d5e8d4;strokeColor=#82b366;" vertex="1" parent="1">
          <mxGeometry x="520" y="600" width="40" height="40" as="geometry" />
        </mxCell>
        <mxCell id="UymZj9wGqCluFkGQLvST-87" value="&lt;span style=&quot;font-size: 24px;&quot;&gt;0&lt;/span&gt;" style="rounded=0;whiteSpace=wrap;html=1;fillColor=#d5e8d4;strokeColor=#82b366;" vertex="1" parent="1">
          <mxGeometry x="560" y="360" width="40" height="40" as="geometry" />
        </mxCell>
        <mxCell id="UymZj9wGqCluFkGQLvST-88" value="&lt;span style=&quot;font-size: 24px;&quot;&gt;1&lt;/span&gt;" style="rounded=0;whiteSpace=wrap;html=1;fillColor=#d5e8d4;strokeColor=#82b366;" vertex="1" parent="1">
          <mxGeometry x="600" y="360" width="40" height="40" as="geometry" />
        </mxCell>
        <mxCell id="UymZj9wGqCluFkGQLvST-89" value="&lt;span style=&quot;font-size: 24px;&quot;&gt;1&lt;/span&gt;" style="rounded=0;whiteSpace=wrap;html=1;fillColor=#d5e8d4;strokeColor=#82b366;" vertex="1" parent="1">
          <mxGeometry x="640" y="360" width="40" height="40" as="geometry" />
        </mxCell>
        <mxCell id="UymZj9wGqCluFkGQLvST-90" value="&lt;span style=&quot;font-size: 24px;&quot;&gt;1&lt;/span&gt;" style="rounded=0;whiteSpace=wrap;html=1;fillColor=#d5e8d4;strokeColor=#82b366;" vertex="1" parent="1">
          <mxGeometry x="560" y="480" width="40" height="40" as="geometry" />
        </mxCell>
        <mxCell id="UymZj9wGqCluFkGQLvST-91" value="&lt;span style=&quot;font-size: 24px;&quot;&gt;0&lt;/span&gt;" style="rounded=0;whiteSpace=wrap;html=1;fillColor=#d5e8d4;strokeColor=#82b366;" vertex="1" parent="1">
          <mxGeometry x="600" y="480" width="40" height="40" as="geometry" />
        </mxCell>
        <mxCell id="UymZj9wGqCluFkGQLvST-92" value="&lt;span style=&quot;font-size: 24px;&quot;&gt;0&lt;/span&gt;" style="rounded=0;whiteSpace=wrap;html=1;fillColor=#d5e8d4;strokeColor=#82b366;" vertex="1" parent="1">
          <mxGeometry x="640" y="480" width="40" height="40" as="geometry" />
        </mxCell>
        <mxCell id="UymZj9wGqCluFkGQLvST-93" value="&lt;span style=&quot;font-size: 24px;&quot;&gt;1&lt;/span&gt;" style="rounded=0;whiteSpace=wrap;html=1;fillColor=#d5e8d4;strokeColor=#82b366;" vertex="1" parent="1">
          <mxGeometry x="560" y="420" width="40" height="40" as="geometry" />
        </mxCell>
        <mxCell id="UymZj9wGqCluFkGQLvST-94" value="&lt;span style=&quot;font-size: 24px;&quot;&gt;0&lt;/span&gt;" style="rounded=0;whiteSpace=wrap;html=1;fillColor=#d5e8d4;strokeColor=#82b366;" vertex="1" parent="1">
          <mxGeometry x="600" y="420" width="40" height="40" as="geometry" />
        </mxCell>
        <mxCell id="UymZj9wGqCluFkGQLvST-95" value="&lt;span style=&quot;font-size: 24px;&quot;&gt;0&lt;/span&gt;" style="rounded=0;whiteSpace=wrap;html=1;fillColor=#d5e8d4;strokeColor=#82b366;" vertex="1" parent="1">
          <mxGeometry x="640" y="420" width="40" height="40" as="geometry" />
        </mxCell>
        <mxCell id="UymZj9wGqCluFkGQLvST-96" value="&lt;span style=&quot;font-size: 24px;&quot;&gt;1&lt;/span&gt;" style="rounded=0;whiteSpace=wrap;html=1;fillColor=#d5e8d4;strokeColor=#82b366;" vertex="1" parent="1">
          <mxGeometry x="560" y="540" width="40" height="40" as="geometry" />
        </mxCell>
        <mxCell id="UymZj9wGqCluFkGQLvST-97" value="&lt;span style=&quot;font-size: 24px;&quot;&gt;0&lt;/span&gt;" style="rounded=0;whiteSpace=wrap;html=1;fillColor=#d5e8d4;strokeColor=#82b366;" vertex="1" parent="1">
          <mxGeometry x="600" y="540" width="40" height="40" as="geometry" />
        </mxCell>
        <mxCell id="UymZj9wGqCluFkGQLvST-98" value="&lt;span style=&quot;font-size: 24px;&quot;&gt;0&lt;/span&gt;" style="rounded=0;whiteSpace=wrap;html=1;fillColor=#d5e8d4;strokeColor=#82b366;" vertex="1" parent="1">
          <mxGeometry x="640" y="540" width="40" height="40" as="geometry" />
        </mxCell>
        <mxCell id="UymZj9wGqCluFkGQLvST-99" value="&lt;span style=&quot;font-size: 24px;&quot;&gt;0&lt;/span&gt;" style="rounded=0;whiteSpace=wrap;html=1;fillColor=#d5e8d4;strokeColor=#82b366;" vertex="1" parent="1">
          <mxGeometry x="560" y="600" width="40" height="40" as="geometry" />
        </mxCell>
        <mxCell id="UymZj9wGqCluFkGQLvST-100" value="&lt;span style=&quot;font-size: 24px;&quot;&gt;1&lt;/span&gt;" style="rounded=0;whiteSpace=wrap;html=1;fillColor=#d5e8d4;strokeColor=#82b366;" vertex="1" parent="1">
          <mxGeometry x="600" y="600" width="40" height="40" as="geometry" />
        </mxCell>
        <mxCell id="UymZj9wGqCluFkGQLvST-101" value="&lt;span style=&quot;font-size: 24px;&quot;&gt;1&lt;/span&gt;" style="rounded=0;whiteSpace=wrap;html=1;fillColor=#d5e8d4;strokeColor=#82b366;" vertex="1" parent="1">
          <mxGeometry x="640" y="600" width="40" height="40" as="geometry" />
        </mxCell>
        <mxCell id="UymZj9wGqCluFkGQLvST-117" value="&lt;span style=&quot;font-size: 24px;&quot;&gt;0&lt;/span&gt;" style="rounded=0;whiteSpace=wrap;html=1;fillColor=#d5e8d4;strokeColor=#82b366;" vertex="1" parent="1">
          <mxGeometry x="680" y="360" width="40" height="40" as="geometry" />
        </mxCell>
        <mxCell id="UymZj9wGqCluFkGQLvST-118" value="&lt;span style=&quot;font-size: 24px;&quot;&gt;0&lt;/span&gt;" style="rounded=0;whiteSpace=wrap;html=1;fillColor=#d5e8d4;strokeColor=#82b366;" vertex="1" parent="1">
          <mxGeometry x="680" y="480" width="40" height="40" as="geometry" />
        </mxCell>
        <mxCell id="UymZj9wGqCluFkGQLvST-119" value="&lt;span style=&quot;font-size: 24px;&quot;&gt;0&lt;/span&gt;" style="rounded=0;whiteSpace=wrap;html=1;fillColor=#d5e8d4;strokeColor=#82b366;" vertex="1" parent="1">
          <mxGeometry x="680" y="420" width="40" height="40" as="geometry" />
        </mxCell>
        <mxCell id="UymZj9wGqCluFkGQLvST-120" value="&lt;span style=&quot;font-size: 24px;&quot;&gt;0&lt;/span&gt;" style="rounded=0;whiteSpace=wrap;html=1;fillColor=#d5e8d4;strokeColor=#82b366;" vertex="1" parent="1">
          <mxGeometry x="680" y="540" width="40" height="40" as="geometry" />
        </mxCell>
        <mxCell id="UymZj9wGqCluFkGQLvST-121" value="&lt;span style=&quot;font-size: 24px;&quot;&gt;0&lt;/span&gt;" style="rounded=0;whiteSpace=wrap;html=1;fillColor=#d5e8d4;strokeColor=#82b366;" vertex="1" parent="1">
          <mxGeometry x="680" y="600" width="40" height="40" as="geometry" />
        </mxCell>
        <mxCell id="UymZj9wGqCluFkGQLvST-122" value="&lt;span style=&quot;font-size: 24px;&quot;&gt;1&lt;/span&gt;" style="rounded=0;whiteSpace=wrap;html=1;fillColor=#d5e8d4;strokeColor=#82b366;" vertex="1" parent="1">
          <mxGeometry x="720" y="360" width="40" height="40" as="geometry" />
        </mxCell>
        <mxCell id="UymZj9wGqCluFkGQLvST-123" value="&lt;span style=&quot;font-size: 24px;&quot;&gt;1&lt;/span&gt;" style="rounded=0;whiteSpace=wrap;html=1;fillColor=#d5e8d4;strokeColor=#82b366;" vertex="1" parent="1">
          <mxGeometry x="760" y="360" width="40" height="40" as="geometry" />
        </mxCell>
        <mxCell id="UymZj9wGqCluFkGQLvST-124" value="&lt;span style=&quot;font-size: 24px;&quot;&gt;0&lt;/span&gt;" style="rounded=0;whiteSpace=wrap;html=1;fillColor=#d5e8d4;strokeColor=#82b366;" vertex="1" parent="1">
          <mxGeometry x="800" y="360" width="40" height="40" as="geometry" />
        </mxCell>
        <mxCell id="UymZj9wGqCluFkGQLvST-125" value="&lt;span style=&quot;font-size: 24px;&quot;&gt;1&lt;/span&gt;" style="rounded=0;whiteSpace=wrap;html=1;fillColor=#d5e8d4;strokeColor=#82b366;" vertex="1" parent="1">
          <mxGeometry x="720" y="480" width="40" height="40" as="geometry" />
        </mxCell>
        <mxCell id="UymZj9wGqCluFkGQLvST-126" value="&lt;span style=&quot;font-size: 24px;&quot;&gt;0&lt;/span&gt;" style="rounded=0;whiteSpace=wrap;html=1;fillColor=#d5e8d4;strokeColor=#82b366;" vertex="1" parent="1">
          <mxGeometry x="760" y="480" width="40" height="40" as="geometry" />
        </mxCell>
        <mxCell id="UymZj9wGqCluFkGQLvST-127" value="&lt;span style=&quot;font-size: 24px;&quot;&gt;1&lt;/span&gt;" style="rounded=0;whiteSpace=wrap;html=1;fillColor=#d5e8d4;strokeColor=#82b366;" vertex="1" parent="1">
          <mxGeometry x="800" y="480" width="40" height="40" as="geometry" />
        </mxCell>
        <mxCell id="UymZj9wGqCluFkGQLvST-128" value="&lt;span style=&quot;font-size: 24px;&quot;&gt;1&lt;/span&gt;" style="rounded=0;whiteSpace=wrap;html=1;fillColor=#d5e8d4;strokeColor=#82b366;" vertex="1" parent="1">
          <mxGeometry x="720" y="420" width="40" height="40" as="geometry" />
        </mxCell>
        <mxCell id="UymZj9wGqCluFkGQLvST-129" value="&lt;span style=&quot;font-size: 24px;&quot;&gt;0&lt;/span&gt;" style="rounded=0;whiteSpace=wrap;html=1;fillColor=#d5e8d4;strokeColor=#82b366;" vertex="1" parent="1">
          <mxGeometry x="760" y="420" width="40" height="40" as="geometry" />
        </mxCell>
        <mxCell id="UymZj9wGqCluFkGQLvST-130" value="&lt;span style=&quot;font-size: 24px;&quot;&gt;1&lt;/span&gt;" style="rounded=0;whiteSpace=wrap;html=1;fillColor=#d5e8d4;strokeColor=#82b366;" vertex="1" parent="1">
          <mxGeometry x="800" y="420" width="40" height="40" as="geometry" />
        </mxCell>
        <mxCell id="UymZj9wGqCluFkGQLvST-131" value="&lt;span style=&quot;font-size: 24px;&quot;&gt;1&lt;/span&gt;" style="rounded=0;whiteSpace=wrap;html=1;fillColor=#d5e8d4;strokeColor=#82b366;" vertex="1" parent="1">
          <mxGeometry x="720" y="540" width="40" height="40" as="geometry" />
        </mxCell>
        <mxCell id="UymZj9wGqCluFkGQLvST-132" value="&lt;span style=&quot;font-size: 24px;&quot;&gt;0&lt;/span&gt;" style="rounded=0;whiteSpace=wrap;html=1;fillColor=#d5e8d4;strokeColor=#82b366;" vertex="1" parent="1">
          <mxGeometry x="760" y="540" width="40" height="40" as="geometry" />
        </mxCell>
        <mxCell id="UymZj9wGqCluFkGQLvST-133" value="&lt;span style=&quot;font-size: 24px;&quot;&gt;1&lt;/span&gt;" style="rounded=0;whiteSpace=wrap;html=1;fillColor=#d5e8d4;strokeColor=#82b366;" vertex="1" parent="1">
          <mxGeometry x="800" y="540" width="40" height="40" as="geometry" />
        </mxCell>
        <mxCell id="UymZj9wGqCluFkGQLvST-134" value="&lt;span style=&quot;font-size: 24px;&quot;&gt;1&lt;/span&gt;" style="rounded=0;whiteSpace=wrap;html=1;fillColor=#d5e8d4;strokeColor=#82b366;" vertex="1" parent="1">
          <mxGeometry x="720" y="600" width="40" height="40" as="geometry" />
        </mxCell>
        <mxCell id="UymZj9wGqCluFkGQLvST-135" value="&lt;span style=&quot;font-size: 24px;&quot;&gt;1&lt;/span&gt;" style="rounded=0;whiteSpace=wrap;html=1;fillColor=#d5e8d4;strokeColor=#82b366;" vertex="1" parent="1">
          <mxGeometry x="760" y="600" width="40" height="40" as="geometry" />
        </mxCell>
        <mxCell id="UymZj9wGqCluFkGQLvST-136" value="&lt;span style=&quot;font-size: 24px;&quot;&gt;0&lt;/span&gt;" style="rounded=0;whiteSpace=wrap;html=1;fillColor=#d5e8d4;strokeColor=#82b366;" vertex="1" parent="1">
          <mxGeometry x="800" y="600" width="40" height="40" as="geometry" />
        </mxCell>
        <mxCell id="UymZj9wGqCluFkGQLvST-137" value="&lt;span style=&quot;font-size: 24px;&quot;&gt;0&lt;/span&gt;" style="rounded=0;whiteSpace=wrap;html=1;fillColor=#d5e8d4;strokeColor=#82b366;" vertex="1" parent="1">
          <mxGeometry x="840" y="360" width="40" height="40" as="geometry" />
        </mxCell>
        <mxCell id="UymZj9wGqCluFkGQLvST-138" value="&lt;span style=&quot;font-size: 24px;&quot;&gt;0&lt;/span&gt;" style="rounded=0;whiteSpace=wrap;html=1;fillColor=#d5e8d4;strokeColor=#82b366;" vertex="1" parent="1">
          <mxGeometry x="840" y="480" width="40" height="40" as="geometry" />
        </mxCell>
        <mxCell id="UymZj9wGqCluFkGQLvST-139" value="&lt;span style=&quot;font-size: 24px;&quot;&gt;0&lt;/span&gt;" style="rounded=0;whiteSpace=wrap;html=1;fillColor=#d5e8d4;strokeColor=#82b366;" vertex="1" parent="1">
          <mxGeometry x="840" y="420" width="40" height="40" as="geometry" />
        </mxCell>
        <mxCell id="UymZj9wGqCluFkGQLvST-140" value="&lt;span style=&quot;font-size: 24px;&quot;&gt;0&lt;/span&gt;" style="rounded=0;whiteSpace=wrap;html=1;fillColor=#d5e8d4;strokeColor=#82b366;" vertex="1" parent="1">
          <mxGeometry x="840" y="540" width="40" height="40" as="geometry" />
        </mxCell>
        <mxCell id="UymZj9wGqCluFkGQLvST-141" value="&lt;span style=&quot;font-size: 24px;&quot;&gt;0&lt;/span&gt;" style="rounded=0;whiteSpace=wrap;html=1;fillColor=#d5e8d4;strokeColor=#82b366;" vertex="1" parent="1">
          <mxGeometry x="840" y="600" width="40" height="40" as="geometry" />
        </mxCell>
        <mxCell id="UymZj9wGqCluFkGQLvST-142" value="&lt;span style=&quot;font-size: 24px;&quot;&gt;1&lt;/span&gt;" style="rounded=0;whiteSpace=wrap;html=1;fillColor=#d5e8d4;strokeColor=#82b366;" vertex="1" parent="1">
          <mxGeometry x="880" y="360" width="40" height="40" as="geometry" />
        </mxCell>
        <mxCell id="UymZj9wGqCluFkGQLvST-143" value="&lt;span style=&quot;font-size: 24px;&quot;&gt;1&lt;/span&gt;" style="rounded=0;whiteSpace=wrap;html=1;fillColor=#d5e8d4;strokeColor=#82b366;" vertex="1" parent="1">
          <mxGeometry x="920" y="360" width="40" height="40" as="geometry" />
        </mxCell>
        <mxCell id="UymZj9wGqCluFkGQLvST-144" value="&lt;span style=&quot;font-size: 24px;&quot;&gt;1&lt;/span&gt;" style="rounded=0;whiteSpace=wrap;html=1;fillColor=#d5e8d4;strokeColor=#82b366;" vertex="1" parent="1">
          <mxGeometry x="960" y="360" width="40" height="40" as="geometry" />
        </mxCell>
        <mxCell id="UymZj9wGqCluFkGQLvST-145" value="&lt;span style=&quot;font-size: 24px;&quot;&gt;1&lt;/span&gt;" style="rounded=0;whiteSpace=wrap;html=1;fillColor=#d5e8d4;strokeColor=#82b366;" vertex="1" parent="1">
          <mxGeometry x="880" y="480" width="40" height="40" as="geometry" />
        </mxCell>
        <mxCell id="UymZj9wGqCluFkGQLvST-146" value="&lt;span style=&quot;font-size: 24px;&quot;&gt;1&lt;/span&gt;" style="rounded=0;whiteSpace=wrap;html=1;fillColor=#d5e8d4;strokeColor=#82b366;" vertex="1" parent="1">
          <mxGeometry x="920" y="480" width="40" height="40" as="geometry" />
        </mxCell>
        <mxCell id="UymZj9wGqCluFkGQLvST-147" value="&lt;span style=&quot;font-size: 24px;&quot;&gt;1&lt;/span&gt;" style="rounded=0;whiteSpace=wrap;html=1;fillColor=#d5e8d4;strokeColor=#82b366;" vertex="1" parent="1">
          <mxGeometry x="960" y="480" width="40" height="40" as="geometry" />
        </mxCell>
        <mxCell id="UymZj9wGqCluFkGQLvST-148" value="&lt;span style=&quot;font-size: 24px;&quot;&gt;1&lt;/span&gt;" style="rounded=0;whiteSpace=wrap;html=1;fillColor=#d5e8d4;strokeColor=#82b366;" vertex="1" parent="1">
          <mxGeometry x="880" y="420" width="40" height="40" as="geometry" />
        </mxCell>
        <mxCell id="UymZj9wGqCluFkGQLvST-149" value="&lt;span style=&quot;font-size: 24px;&quot;&gt;0&lt;/span&gt;" style="rounded=0;whiteSpace=wrap;html=1;fillColor=#d5e8d4;strokeColor=#82b366;" vertex="1" parent="1">
          <mxGeometry x="920" y="420" width="40" height="40" as="geometry" />
        </mxCell>
        <mxCell id="UymZj9wGqCluFkGQLvST-150" value="&lt;font style=&quot;font-size: 24px;&quot;&gt;0&lt;/font&gt;" style="rounded=0;whiteSpace=wrap;html=1;fillColor=#d5e8d4;strokeColor=#82b366;" vertex="1" parent="1">
          <mxGeometry x="960" y="420" width="40" height="40" as="geometry" />
        </mxCell>
        <mxCell id="UymZj9wGqCluFkGQLvST-151" value="&lt;span style=&quot;font-size: 24px;&quot;&gt;1&lt;/span&gt;" style="rounded=0;whiteSpace=wrap;html=1;fillColor=#d5e8d4;strokeColor=#82b366;" vertex="1" parent="1">
          <mxGeometry x="880" y="540" width="40" height="40" as="geometry" />
        </mxCell>
        <mxCell id="UymZj9wGqCluFkGQLvST-152" value="&lt;span style=&quot;font-size: 24px;&quot;&gt;0&lt;/span&gt;" style="rounded=0;whiteSpace=wrap;html=1;fillColor=#d5e8d4;strokeColor=#82b366;" vertex="1" parent="1">
          <mxGeometry x="920" y="540" width="40" height="40" as="geometry" />
        </mxCell>
        <mxCell id="UymZj9wGqCluFkGQLvST-153" value="&lt;span style=&quot;font-size: 24px;&quot;&gt;0&lt;/span&gt;" style="rounded=0;whiteSpace=wrap;html=1;fillColor=#d5e8d4;strokeColor=#82b366;" vertex="1" parent="1">
          <mxGeometry x="960" y="540" width="40" height="40" as="geometry" />
        </mxCell>
        <mxCell id="UymZj9wGqCluFkGQLvST-154" value="&lt;span style=&quot;font-size: 24px;&quot;&gt;1&lt;/span&gt;" style="rounded=0;whiteSpace=wrap;html=1;fillColor=#d5e8d4;strokeColor=#82b366;" vertex="1" parent="1">
          <mxGeometry x="880" y="600" width="40" height="40" as="geometry" />
        </mxCell>
        <mxCell id="UymZj9wGqCluFkGQLvST-155" value="&lt;span style=&quot;font-size: 24px;&quot;&gt;1&lt;/span&gt;" style="rounded=0;whiteSpace=wrap;html=1;fillColor=#d5e8d4;strokeColor=#82b366;" vertex="1" parent="1">
          <mxGeometry x="920" y="600" width="40" height="40" as="geometry" />
        </mxCell>
        <mxCell id="UymZj9wGqCluFkGQLvST-156" value="&lt;span style=&quot;font-size: 24px;&quot;&gt;1&lt;/span&gt;" style="rounded=0;whiteSpace=wrap;html=1;fillColor=#d5e8d4;strokeColor=#82b366;" vertex="1" parent="1">
          <mxGeometry x="960" y="600" width="40" height="40" as="geometry" />
        </mxCell>
        <mxCell id="UymZj9wGqCluFkGQLvST-157" value="&lt;span style=&quot;font-size: 24px;&quot;&gt;0&lt;/span&gt;" style="rounded=0;whiteSpace=wrap;html=1;fillColor=#d5e8d4;strokeColor=#82b366;" vertex="1" parent="1">
          <mxGeometry x="1000" y="360" width="40" height="40" as="geometry" />
        </mxCell>
        <mxCell id="UymZj9wGqCluFkGQLvST-158" value="&lt;span style=&quot;font-size: 24px;&quot;&gt;0&lt;/span&gt;" style="rounded=0;whiteSpace=wrap;html=1;fillColor=#d5e8d4;strokeColor=#82b366;" vertex="1" parent="1">
          <mxGeometry x="1000" y="480" width="40" height="40" as="geometry" />
        </mxCell>
        <mxCell id="UymZj9wGqCluFkGQLvST-159" value="&lt;span style=&quot;font-size: 24px;&quot;&gt;0&lt;/span&gt;" style="rounded=0;whiteSpace=wrap;html=1;fillColor=#d5e8d4;strokeColor=#82b366;" vertex="1" parent="1">
          <mxGeometry x="1000" y="420" width="40" height="40" as="geometry" />
        </mxCell>
        <mxCell id="UymZj9wGqCluFkGQLvST-160" value="&lt;span style=&quot;font-size: 24px;&quot;&gt;0&lt;/span&gt;" style="rounded=0;whiteSpace=wrap;html=1;fillColor=#d5e8d4;strokeColor=#82b366;" vertex="1" parent="1">
          <mxGeometry x="1000" y="540" width="40" height="40" as="geometry" />
        </mxCell>
        <mxCell id="UymZj9wGqCluFkGQLvST-161" value="&lt;span style=&quot;font-size: 24px;&quot;&gt;0&lt;/span&gt;" style="rounded=0;whiteSpace=wrap;html=1;fillColor=#d5e8d4;strokeColor=#82b366;" vertex="1" parent="1">
          <mxGeometry x="1000" y="600" width="40" height="40" as="geometry" />
        </mxCell>
      </root>
    </mxGraphModel>
  </diagram>
</mxfile>
